# xmcd
#
# Track frame offsets:
#	150
#	19871
#	36411
#	48816
#	65141
#	82125
#	89362
#	108230
#	120249
#	138734
#	158638
#	166950
#	193836
#	197325
#
# Disc length: 2874 seconds
#
# Revision: 0
# Processed by: cddbd v1.5.1PL0 Copyright (c) Steve Scherf et al.
# Submitted via: dBpowerAMP V4.0
#
DISCID=bb0b380e
DTITLE=Scott Nolan Band - no bourbon and bad radio
DYEAR=2005
DGENRE=Blues
TTITLE0=Golden
TTITLE1=Sad Story - Beautiful Song
TTITLE2=Daytime Moon
TTITLE3=Cold Cold Change
TTITLE4=Postcards
TTITLE5=Can't Get You
TTITLE6=Rosie
TTITLE7=Right on the Wrong Time
TTITLE8=My Harmony
TTITLE9=Bus Station Morning
TTITLE10=This Train
TTITLE11=Last Sunday Morning
TTITLE12=?
TTITLE13=No Bourbon and Bad Radio
EXTD=
EXTT0=
EXTT1=
EXTT2=
EXTT3=
EXTT4=
EXTT5=
EXTT6=
EXTT7=
EXTT8=
EXTT9=
EXTT10=
EXTT11=
EXTT12=
EXTT13=
PLAYORDER=
